HIERARCHY
ROOT Hips
{
	OFFSET -3.958830 18.904000 13.208200
	CHANNELS 6 Xposition Yposition Zposition Zrotation Yrotation Xrotation 
	JOINT LHipJoint
	{
		OFFSET 0.000000 0.000000 0.000000
		CHANNELS 3 Zrotation Yrotation Xrotation
		JOINT LeftUpLeg
		{
			OFFSET 1.800000 -1.400000 0.085000
			CHANNELS 3 Zrotation Yrotation Xrotation
			JOINT LeftLeg
			{
				OFFSET 2.215000 -6.000000 0.000000
				CHANNELS 3 Zrotation Yrotation Xrotation
				JOINT LeftFoot
				{
					OFFSET 2.500000 -6.900000 0.000000
					CHANNELS 3 Zrotation Yrotation Xrotation
					JOINT LeftToeBase
					{
						OFFSET 0.200000 -0.500000 1.950000
						CHANNELS 3 Zrotation Yrotation Xrotation
						End Site
						{
							OFFSET 0.000000 0.000000 0.000000
						}
					}
				}
			}
		}
	}
	JOINT RHipJoint
	{
		OFFSET 0.000000 0.000000 0.000000
		CHANNELS 3 Zrotation Yrotation Xrotation
		JOINT RightUpLeg
		{
			OFFSET -1.800000 -1.400000 0.085000
			CHANNELS 3 Zrotation Yrotation Xrotation
			JOINT RightLeg
			{
				OFFSET -2.215000 -6.000000 0.000000
				CHANNELS 3 Zrotation Yrotation Xrotation
				JOINT RightFoot
				{
					OFFSET -2.500000 -6.900000 0.000000
					CHANNELS 3 Zrotation Yrotation Xrotation
					JOINT RightToeBase
					{
						OFFSET -0.200000 -0.500000 1.950000
						CHANNELS 3 Zrotation Yrotation Xrotation
						End Site
						{
							OFFSET 0.000000 0.000000 0.000000
						}
					}
				}
			}
		}
	}
	JOINT LowerBack
	{
		OFFSET 0.000000 0.000000 0.000000
		CHANNELS 3 Zrotation Yrotation Xrotation
		JOINT Spine
		{
			OFFSET -0.087000 1.940000 -0.288900
			CHANNELS 3 Zrotation Yrotation Xrotation
			JOINT Spine1
			{
				OFFSET 0.000000 1.950000 0.060000
				CHANNELS 3 Zrotation Yrotation Xrotation
				JOINT Neck
				{
					OFFSET 0.000000 0.000000 0.000000
					CHANNELS 3 Zrotation Yrotation Xrotation
					JOINT Neck1
					{
						OFFSET 0.000000 1.600000 0.340000
						CHANNELS 3 Zrotation Yrotation Xrotation
						JOINT Head
						{
							OFFSET 0.000000 1.667000 -0.240000
							CHANNELS 3 Zrotation Yrotation Xrotation
							End Site
							{
								OFFSET 0.000000 0.000000 0.000000
							}
						}
					}
				}
				JOINT LeftShoulder
				{
					OFFSET 0.000000 0.000000 0.000000
					CHANNELS 3 Zrotation Yrotation Xrotation
					JOINT LeftArm
					{
						OFFSET 2.700000 1.550000 -0.730000
						CHANNELS 3 Zrotation Yrotation Xrotation
						JOINT LeftForeArm
						{
							OFFSET 5.450000 0.000000 0.000000
							CHANNELS 3 Zrotation Yrotation Xrotation
							JOINT LeftHand
							{
								OFFSET 3.450000 0.000000 0.000000
								CHANNELS 3 Zrotation Yrotation Xrotation
								JOINT LeftHandIndex1
								{
									OFFSET 0.750000 0.000000 0.000000
									CHANNELS 3 Zrotation Yrotation Xrotation
									End Site
									{
										OFFSET 0.000000 0.000000 0.000000
									}
								}
							}
						}
					}
				}
				JOINT RightShoulder
				{
					OFFSET 0.000000 0.000000 0.000000
					CHANNELS 3 Zrotation Yrotation Xrotation
					JOINT RightArm
					{
						OFFSET -2.700000 1.550000 -0.730000
						CHANNELS 3 Zrotation Yrotation Xrotation
						JOINT RightForeArm
						{
							OFFSET -5.450000 0.000000 0.000000
							CHANNELS 3 Zrotation Yrotation Xrotation
							JOINT RightHand
							{
								OFFSET -3.450000 0.000000 0.000000
								CHANNELS 3 Zrotation Yrotation Xrotation
								JOINT RightHandIndex1
								{
									OFFSET -0.750000 0.000000 0.000000
									CHANNELS 3 Zrotation Yrotation Xrotation
									End Site
									{
										OFFSET 0.000000 0.000000 0.000000
									}
								}
							}
						}
					}
				}
			}
		}
	}
}
MOTION
Frames: 14
Frame Time: 0.016667
-12.203420 16.978120 -0.101100 -3.433443 17.645856 -1.575940 -15.291726 13.577406 4.155290 6.521876 -8.123135 -17.514512 -12.916314 14.529569 45.866845 0.161729 9.896944 1.098753 0.295810 -0.276140 0.253860 18.044831 -10.359122 2.751992 4.096849 0.972199 -10.861466 -2.370581 -3.306935 17.436354 -0.197274 -2.751025 3.598701 -0.004330 0.215800 -0.083580 -3.494573 -3.548657 -8.477401 11.605076 -5.658473 20.700510 -4.152935 -0.965900 -16.225944 0.941814 -7.508593 -10.078573 -19.572051 10.636164 43.541662 19.397060 -2.633920 -17.233570 -19.281960 2.453164 -0.861278 -29.861256 0.241400 -3.398223 15.805956 -24.629182 -3.569279 -3.498040 2.395716 1.146910 -0.213260 -0.080070 0.057250 18.015457 3.315109 6.408366 22.574128 -7.631919 -4.640317 -21.390096 -1.514941 1.815948 2.413802 -0.931440 -0.613410 0.452680 0.170270 -0.429010 
-12.220730 16.974430 -0.080530 -3.667559 15.733626 -2.321918 -15.289045 13.407316 4.291533 7.440346 -8.754620 -19.326763 -12.908169 15.489384 49.045158 0.266977 10.537003 0.877289 0.299760 -0.276870 0.256600 18.084952 -10.296574 2.702590 4.385557 0.807386 -10.022678 -2.659156 -3.332288 17.815312 -0.218962 -2.853789 3.564620 0.004830 0.219730 -0.083290 -3.486136 -3.460876 -8.508580 11.710194 -5.359740 21.614039 -3.976568 -0.400883 -15.048738 0.749705 -7.604916 -10.140843 -19.591839 10.904488 42.785181 19.043600 -2.106710 -17.401840 -19.250328 1.908172 -0.616116 -29.756598 0.612970 -3.737142 11.619523 -27.526632 -3.126836 -3.476467 2.421458 1.155140 -0.208390 -0.085760 0.057600 18.328599 4.002409 6.550686 23.725031 -7.443961 -4.915776 -21.538602 -0.527533 1.577003 2.379600 -0.944337 -0.625780 0.458970 0.176300 -0.438730 
-12.239360 16.962780 -0.054560 -3.078949 14.087298 -2.985975 -15.280698 13.270054 4.387458 7.576839 -9.174601 -20.561287 -12.615742 15.967291 51.105679 0.343358 10.882302 0.761960 0.322650 -0.240660 0.267070 18.110104 -10.349787 2.611577 3.526173 0.556783 -9.240870 -2.330028 -3.531307 18.239817 -0.242402 -2.979585 3.516068 0.028700 0.216770 -0.086210 -3.485571 -3.254777 -8.499316 10.709798 -4.710015 22.288315 -3.572817 0.035564 -13.530820 0.281443 -7.564796 -9.991826 -19.234022 10.864523 41.751383 19.123190 -1.728930 -17.881740 -18.910475 1.416932 -0.449510 -29.230407 0.260179 -3.820710 5.890528 -30.218942 -2.118465 -3.451672 2.482130 1.141560 -0.209150 -0.085620 0.063170 18.899253 4.415840 6.499360 24.470158 -6.998384 -5.010812 -21.340468 -0.036156 1.387012 2.368825 -0.965333 -0.618520 0.461890 0.163890 -0.434190 
-12.242220 16.958940 -0.029220 -2.930694 12.669069 -3.850803 -15.261018 13.238382 4.369802 7.507737 -9.284467 -21.210852 -11.257175 15.511918 52.313316 0.334110 10.892570 0.756107 0.356670 -0.190660 0.272370 18.135629 -10.414925 2.567797 2.958828 0.291921 -8.260298 -2.022771 -3.738104 18.657254 -0.274553 -3.127775 3.467855 0.061940 0.221180 -0.086700 -3.515099 -3.138453 -8.439639 10.506158 -4.399529 22.710013 -3.269330 0.262178 -11.814326 -0.132400 -7.652598 -9.900586 -19.224089 11.076799 40.948207 19.332730 -1.427790 -18.088350 -18.748218 0.851245 -0.208957 -28.741884 0.196379 -3.948059 -0.452639 -33.553581 -0.730030 -3.424795 2.568111 1.125930 -0.205070 -0.085470 0.082540 19.494584 4.964503 6.462380 24.337783 -6.134841 -4.917313 -20.386905 0.291149 1.162824 2.354857 -0.979678 -0.609080 0.469350 0.144920 -0.424070 
-12.246490 16.970860 -0.011560 -2.439976 10.413178 -4.790398 -15.226237 13.236080 4.344055 7.285283 -9.072592 -21.458548 -10.514441 15.214786 52.468263 0.300602 10.799049 0.769804 0.387970 -0.154910 0.299030 18.159195 -10.527061 2.531214 2.347167 0.121707 -7.473271 -2.457714 -3.755984 19.360260 -0.313776 -3.248563 3.411415 0.081270 0.201010 -0.080510 -3.549640 -2.965662 -8.386764 10.049465 -4.011681 23.716071 -3.466260 0.680946 -10.832377 -0.431463 -7.726312 -10.086074 -19.343147 11.628810 40.890071 19.561820 -0.710660 -18.742640 -18.903968 -0.031774 0.188721 -26.803963 1.168009 -4.015516 -8.607835 -37.468117 1.637297 -3.394160 2.680458 1.135990 -0.219510 -0.067330 0.081480 20.221668 5.916649 6.613461 24.491832 -5.318799 -4.805405 -19.304239 0.379392 1.044630 2.349873 -0.974386 -0.598390 0.463830 0.132560 -0.429140 
-12.242980 16.978930 0.031200 -2.050180 7.635315 -5.524331 -15.173247 13.242761 4.269358 7.248012 -8.571210 -21.566443 -9.794022 14.858976 52.050911 0.272830 10.597579 0.822195 0.432390 -0.093280 0.308130 18.201243 -10.639689 2.523972 1.875874 -0.088522 -6.455871 -3.130181 -3.604766 19.213049 -0.345656 -3.335801 3.372616 0.111640 0.187620 -0.071930 -3.623236 -2.776348 -8.307201 10.085531 -3.578853 23.808599 -3.731657 1.098176 -9.821448 -0.822986 -8.150484 -10.272529 -20.272790 12.681506 40.504451 19.800980 -0.118160 -18.197420 -19.367324 -0.652665 0.594084 -24.640575 2.481654 -3.857538 -17.820210 -41.185794 4.932623 -3.369025 2.848403 1.111360 -0.226010 -0.058490 0.101710 21.425396 6.808409 6.743211 23.687644 -4.626301 -4.572930 -18.501771 0.477720 0.896643 2.359757 -1.009034 -0.567320 0.441710 0.104190 -0.412840 
-12.236260 16.978640 0.066280 -1.531588 4.989175 -6.068413 -15.137032 13.236633 4.232081 7.059262 -8.289498 -22.244964 -8.698816 14.339591 52.087332 0.243125 10.414966 0.869083 0.460590 -0.048270 0.318750 18.231729 -10.733630 2.505622 1.363279 -0.254754 -5.762629 -3.785939 -3.452566 19.020593 -0.356835 -3.399544 3.349138 0.134510 0.171160 -0.066940 -3.660386 -2.617889 -8.246052 9.847730 -3.100593 24.085585 -3.927134 1.519357 -8.966513 -1.013667 -8.333665 -10.340029 -20.418418 13.175828 39.595140 19.028520 0.602910 -17.662110 -19.328688 -1.013727 0.901712 -22.786817 3.274769 -3.446116 -27.681544 -44.178347 9.103706 -3.370517 2.993400 1.077230 -0.219930 -0.059550 0.108610 21.744760 7.354377 6.761045 23.750503 -3.991786 -4.470193 -17.877445 0.973167 0.711259 2.358134 -1.046493 -0.541130 0.414870 0.081430 -0.405920 
-12.226990 16.977900 0.110030 -1.422555 2.423625 -6.397365 -15.086357 13.227775 4.150045 7.191462 -7.867295 -23.118385 -7.424815 13.436836 51.237473 0.140908 10.070293 0.980673 0.468420 -0.040480 0.312430 18.280273 -10.808036 2.537799 1.106126 -0.469752 -4.761615 -4.128035 -3.358818 17.881094 -0.363822 -3.450685 3.340472 0.144760 0.199450 -0.047800 -3.745738 -2.454714 -8.176435 10.293866 -2.902245 23.851627 -4.433834 1.736492 -8.002720 -1.129261 -8.427934 -10.418112 -20.219561 13.754150 38.588915 18.367130 1.294380 -16.591360 -19.402501 -1.509911 1.314102 -20.781778 4.321938 -2.899630 -37.971692 -46.499440 13.944662 -3.408394 3.106857 1.051050 -0.187760 -0.076950 0.123840 21.969511 7.863008 6.732002 23.458643 -3.178705 -4.298383 -16.414237 1.810932 0.462207 2.332518 -1.061279 -0.536610 0.407570 0.079030 -0.397500 
-12.211780 16.978370 0.156080 -1.209633 0.010637 -6.556124 -15.017194 13.298132 3.986810 6.999956 -7.101650 -23.432657 -6.001065 12.022726 48.547605 -0.022710 9.318935 1.225778 0.474710 -0.022410 0.297950 18.327953 -10.938943 2.579954 0.661065 -0.562168 -4.276685 -4.299603 -3.306830 17.159658 -0.366133 -3.490690 3.333490 0.152280 0.219260 -0.026170 -3.859773 -2.285199 -8.057991 10.827485 -2.758953 23.318334 -5.151164 1.837413 -7.080419 -1.229739 -8.558740 -10.687807 -20.234285 14.531053 37.688818 18.043770 2.021240 -15.607640 -19.113526 -2.163543 1.977594 -19.781840 5.199409 -2.466990 -47.507058 -48.561367 18.984206 -3.440625 3.202525 1.016060 -0.160740 -0.084040 0.139410 21.841509 8.503686 6.710739 24.170791 -2.421713 -4.394911 -16.436788 3.025885 0.207064 2.310996 -1.098737 -0.516510 0.391200 0.071940 -0.379420 
-12.195300 16.987500 0.191220 -0.683910 -2.153690 -7.136723 -14.966912 13.461346 3.784921 6.672823 -6.237943 -22.950142 -4.673504 10.503998 44.876747 -0.229565 8.403965 1.529080 0.496310 0.008330 0.308360 18.337750 -11.084641 2.616200 -0.298279 -0.681049 -3.492963 -4.307872 -3.347929 16.522262 -0.390236 -3.546042 3.313948 0.168080 0.221620 -0.006310 -3.894695 -2.247930 -7.929723 10.616633 -2.450748 23.167094 -5.352540 2.008891 -5.824865 -1.301152 -8.717735 -11.032593 -20.756525 15.319111 37.585217 17.957690 2.765050 -15.791370 -19.374681 -3.195983 2.475836 -19.122705 5.112012 -2.126152 -55.982588 -50.038930 23.775193 -3.461507 3.245852 1.014900 -0.152830 -0.068210 0.147820 22.281678 9.531580 6.928962 24.054078 -1.781157 -4.360853 -16.466416 3.097274 0.133212 2.301303 -1.111148 -0.503190 0.390520 0.062580 -0.373720 
-12.172530 16.998340 0.222840 -0.782200 -4.233242 -7.659263 -14.894351 13.660161 3.509790 6.761573 -5.114555 -22.119676 -3.104300 8.806367 40.113932 -0.508044 7.306435 1.903019 0.509560 0.011720 0.336540 18.368393 -11.220223 2.709211 -0.494469 -0.756972 -2.840982 -4.365029 -3.360816 16.057206 -0.409756 -3.581949 3.301423 0.182290 0.208050 -0.019860 -3.988167 -2.213767 -7.782119 11.631151 -2.407607 23.059450 -6.132495 2.254765 -4.676385 -1.153963 -8.864387 -11.529830 -21.467908 15.917061 37.803792 17.683270 3.381450 -16.342770 -19.370020 -4.393266 2.852344 -18.739878 4.190576 -1.669097 -62.934762 -50.691925 27.788053 -3.465816 3.237731 1.047580 -0.163350 -0.063300 0.138630 21.963278 10.638888 7.392176 24.579264 -1.601694 -4.447438 -16.355349 3.834972 0.008424 2.267390 -1.100361 -0.527460 0.408650 0.063050 -0.398960 
-12.157990 17.006360 0.254380 -0.628015 -5.668457 -8.047767 -14.843423 13.830581 3.281307 6.639742 -4.190881 -21.394912 -1.731423 7.246103 34.932498 -0.723426 6.195348 2.301878 0.517620 0.027750 0.347920 18.383858 -11.330718 2.786395 -0.783261 -0.852182 -2.194672 -4.604514 -3.317703 15.440315 -0.431677 -3.611454 3.279924 0.192200 0.203000 -0.013700 -4.040895 -2.221630 -7.657741 11.951210 -2.312139 22.858991 -6.517944 2.357803 -3.664528 -1.167187 -8.946378 -11.860307 -21.974254 16.273914 37.660119 17.706700 3.733450 -16.839630 -19.533176 -5.532379 3.026818 -17.904652 2.632031 -1.004069 -69.526762 -51.258547 32.025810 -3.479812 3.251316 1.049640 -0.166970 -0.050390 0.133270 22.175401 11.516801 7.841591 24.611413 -2.016724 -4.628425 -16.786554 5.288153 -0.209449 2.240343 -1.109576 -0.522810 0.413140 0.062300 -0.397480 
-12.136270 17.007820 0.286340 -0.796377 -6.922365 -8.199862 -14.791355 13.935619 3.107157 7.037624 -3.352905 -20.854140 -1.094272 6.159381 29.620117 -0.886375 5.253539 2.663196 0.523520 0.036800 0.358670 18.412326 -11.417010 2.835103 -0.847983 -0.875486 -1.969257 -4.729870 -3.313116 15.369141 -0.448354 -3.645621 3.270110 0.195960 0.212410 0.001730 -4.120605 -2.183964 -7.555684 12.686323 -2.496068 22.412231 -7.173191 2.207005 -2.696937 -1.049878 -8.773974 -12.069696 -21.609126 16.441622 37.575230 17.304510 4.290300 -16.950840 -19.464392 -6.541319 3.310749 -17.321511 1.480158 -0.452874 -76.521684 -52.536695 37.243779 -3.510645 3.258473 1.047140 -0.152020 -0.042080 0.137640 21.823819 12.104391 8.008813 25.333681 -1.720903 -4.701515 -16.996360 5.855040 -0.324808 2.218982 -1.118684 -0.518690 0.417980 0.056720 -0.396360 
-12.119070 17.012740 0.312050 -1.013623 -8.600030 -8.442840 -14.752903 14.021213 2.973974 7.930835 -2.454780 -19.839912 -1.292144 5.482146 23.924655 -1.006453 4.471498 2.956596 0.538430 0.066840 0.368300 18.432096 -11.456688 2.878810 -0.580994 -0.861973 -1.792904 -5.085795 -3.236746 15.513447 -0.469788 -3.670272 3.263189 0.208530 0.198440 0.011390 -4.161056 -2.195748 -7.487947 13.418344 -2.573390 22.176853 -7.569582 2.240627 -1.779558 -0.850005 -8.662934 -12.396392 -21.617739 17.043298 38.015631 16.784760 5.253850 -17.192900 -19.786687 -7.557795 3.619304 -16.673856 0.814079 -0.099447 -82.789459 -54.050038 42.529081 -3.529784 3.267280 1.050510 -0.147310 -0.024100 0.138220 21.729851 12.858585 8.265915 25.304555 -1.277223 -4.514437 -16.746231 5.159666 -0.245384 2.218574 -1.121068 -0.508020 0.410950 0.047600 -0.400460 
